HIERARCHY
ROOT Hips
{
  OFFSET 138.09 39.9751 136.08
  CHANNELS 6 Xposition Yposition Zposition Zrotation Xrotation Yrotation
  JOINT LeftHip
  {
    OFFSET 3.43 0 0
    CHANNELS 6 Xposition Yposition Zposition Zrotation Xrotation Yrotation
    JOINT LeftKnee
    {
      OFFSET 0 -18.47 0
      CHANNELS 6 Xposition Yposition Zposition Zrotation Xrotation Yrotation
      JOINT LeftAnkle
      {
        OFFSET 0 -17.95 0
        CHANNELS 6 Xposition Yposition Zposition Zrotation Xrotation Yrotation
        End Site
        {
          OFFSET 0 -3.12 0
        }
      }
    }
  }
  JOINT RightHip
  {
    OFFSET -3.43 0 0
    CHANNELS 6 Xposition Yposition Zposition Zrotation Xrotation Yrotation
    JOINT RightKnee
    {
      OFFSET 0 -18.47 0
      CHANNELS 6 Xposition Yposition Zposition Zrotation Xrotation Yrotation
      JOINT RightAnkle
      {
        OFFSET 0 -17.95 0
        CHANNELS 6 Xposition Yposition Zposition Zrotation Xrotation Yrotation
        End Site
        {
          OFFSET 0 -3.12 0
        }
      }
    }
  }
  JOINT Chest
  {
    OFFSET 0 4.57 0
    CHANNELS 6 Xposition Yposition Zposition Zrotation Xrotation Yrotation
    JOINT CS_BVH
    {
      OFFSET 0 6.57 0
      CHANNELS 6 Xposition Yposition Zposition Zrotation Xrotation Yrotation
      JOINT LeftCollar
      {
        OFFSET 1.06 4.19 1.76
        CHANNELS 6 Xposition Yposition Zposition Zrotation Xrotation Yrotation
        JOINT LeftShoulder
        {
          OFFSET 5.81 0 0
          CHANNELS 6 Xposition Yposition Zposition Zrotation Xrotation Yrotation
          JOINT LeftElbow
          {
            OFFSET 0 -12.08 0
            CHANNELS 6 Xposition Yposition Zposition Zrotation Xrotation Yrotation
            JOINT LeftWrist
            {
              OFFSET 0 -9.82 0
              CHANNELS 6 Xposition Yposition Zposition Zrotation Xrotation Yrotation
              End Site
              {
                OFFSET 0 -7.37 0
              }
            }
          }
        }
      }
      JOINT RightCollar
      {
        OFFSET -1.06 4.19 1.76
        CHANNELS 6 Xposition Yposition Zposition Zrotation Xrotation Yrotation
        JOINT RightShoulder
        {
          OFFSET -6.06 0 0
          CHANNELS 6 Xposition Yposition Zposition Zrotation Xrotation Yrotation
          JOINT RightElbow
          {
            OFFSET 0 -11.08 0
            CHANNELS 6 Xposition Yposition Zposition Zrotation Xrotation Yrotation
            JOINT RightWrist
            {
              OFFSET 0 -9.82 0
              CHANNELS 6 Xposition Yposition Zposition Zrotation Xrotation Yrotation
              End Site
              {
                OFFSET 0 -7.14001 0
              }
            }
          }
        }
      }
      JOINT Neck
      {
        OFFSET 0 4.05 0
        CHANNELS 6 Xposition Yposition Zposition Zrotation Xrotation Yrotation
        JOINT Head
        {
          OFFSET 0 5.19 0
          CHANNELS 6 Xposition Yposition Zposition Zrotation Xrotation Yrotation
          End Site
          {
            OFFSET 0 4.14001 0
          }
        }
      }
    }
  }
}
MOTION
Frames:	7
Frame Time:	0.0333333
0.107732 38.6829 -12.5461 0.438043 -1.33539 -28.5566 3.43 -7.10543e-015 -2.13163e-014 -0.283764 -11.3537 5.43412 6.12843e-014 -18.47 7.10543e-014 1.75274 36.2705 -1.84066 1.63425e-013 -17.95 4.61853e-013 -0.927128 -10.1808 -0.273069 -3.43 -5.68434e-014 7.10543e-015 -8.66417 -17.226 6.59404 5.32907e-014 -18.47 -1.06581e-014 -3.82913 50.283 2.23158 3.12639e-013 -17.95 0 1.03464 -8.39226 0.25673 0 4.57 -4.26326e-014 -4.45204 5.1882 1.44259 -3.10862e-015 6.57 -3.55271e-015 -1.92218 7.28042 1.37484 1.06 4.19 1.76 -30.6698 1.11724 -3.50962 5.81 1.42109e-014 -1.42109e-014 30.6754 21.0157 -53.9595 1.43174e-012 -12.08 -1.53477e-012 51.8561 -14.4941 21.7596 2.73772e-011 -9.82 -4.78302e-011 -4.57766e-009 5.6624e-009 1.01518e-009 -1.06 4.19 1.76 15.2753 -0.150439 -3.33331 -6.06 7.10543e-014 2.84217e-014 -6.5541 25.8978 60.0338 1.53833e-012 -11.08 3.13705e-012 -37.2596 -16.6621 -6.58602 3.7133e-011 -9.82 6.74127e-011 -1.88015e-009 2.35359e-009 -2.76989e-009 -1.08802e-014 4.05 0 23.757 3.67072 15.5771 -3.90799e-014 5.19 -1.42109e-014 -23.4923 -14.7501 25.8657 
0.966776 38.9919 -11.1779 -0.361128 0.682425 -20.9128 3.43 -7.10543e-015 -2.13163e-014 -1.31008 -11.1027 3.47475 6.12843e-014 -18.47 7.10543e-014 3.19715 34.6993 -2.1338 1.63425e-013 -17.95 4.61853e-013 -0.944892 -9.70764 -0.274696 -3.43 -5.68434e-014 7.10543e-015 -3.79301 -19.283 9.2043 5.32907e-014 -18.47 -1.06581e-014 -1.55741 52.4026 1.3597 3.12639e-013 -17.95 0 1.20891 -8.5548 0.248785 0 4.57 -4.26326e-014 -5.07446 5.10813 0.752023 -3.10862e-015 6.57 -3.55271e-015 -0.822963 6.96178 0.56472 1.06 4.19 1.76 -29.8035 1.15427 -3.76067 5.81 1.42109e-014 -1.42109e-014 31.1461 20.5934 -49.982 1.43174e-012 -12.08 -1.53477e-012 50.5512 -14.4032 21.1112 2.73772e-011 -9.82 -4.78302e-011 -4.57766e-009 5.6624e-009 1.01518e-009 -1.06 4.19 1.76 15.4521 -0.179164 -3.53265 -6.06 7.10543e-014 2.84217e-014 -5.9398 25.9775 60.189 1.53833e-012 -11.08 3.13705e-012 -35.2151 -15.9284 -5.96636 3.7133e-011 -9.82 6.74127e-011 -1.88015e-009 2.35359e-009 -2.76989e-009 -1.08802e-014 4.05 0 21.7139 2.16799 12.8579 -3.90799e-014 5.19 -1.42109e-014 -20.0991 -16.5063 21.5745 
1.74427 39.3055 -9.75787 -1.79501 2.23893 -12.5291 3.43 -7.10543e-015 -2.13163e-014 -1.33104 -10.0739 3.9399 6.12843e-014 -18.47 7.10543e-014 3.45745 33.0056 -2.1162 1.63425e-013 -17.95 4.61853e-013 -0.957443 -9.95794 -0.272992 -3.43 -5.68434e-014 7.10543e-015 0.714899 -21.1284 11.4341 5.32907e-014 -18.47 -1.06581e-014 1.21119 51.663 0.137025 3.12639e-013 -17.95 0 1.33939 -8.50016 0.242822 0 4.57 -4.26326e-014 -5.26237 5.87089 -0.17821 -3.10862e-015 6.57 -3.55271e-015 0.219453 6.60046 -0.632919 1.06 4.19 1.76 -29.7507 1.19201 -3.90677 5.81 1.42109e-014 -1.42109e-014 32.6023 18.7352 -48.0024 1.43174e-012 -12.08 -1.53477e-012 50.1618 -14.3729 20.9169 2.73772e-011 -9.82 -4.78302e-011 -4.57766e-009 5.6624e-009 1.01518e-009 -1.06 4.19 1.76 15.5964 -0.201817 -3.68558 -6.06 7.10543e-014 2.84217e-014 -5.11817 26.3752 59.0445 1.53833e-012 -11.08 3.13705e-012 -33.8268 -15.4154 -5.56136 3.7133e-011 -9.82 6.74127e-011 -1.88015e-009 2.35359e-009 -2.76989e-009 -1.08802e-014 4.05 0 18.4087 1.11225 10.0161 -3.90799e-014 5.19 -1.42109e-014 -15.974 -18.8508 16.8557 
2.72844 39.3662 -8.25368 -2.19928 4.66615 -4.58868 3.43 -7.10543e-015 -2.13163e-014 -3.15402 -10.1466 3.22089 6.12843e-014 -18.47 7.10543e-014 2.38258 31.5211 -1.76175 1.63425e-013 -17.95 4.61853e-013 -0.893914 -9.8627 -0.268788 -3.43 -5.68434e-014 7.10543e-015 2.76053 -25.7051 12.3149 5.32907e-014 -18.47 -1.06581e-014 3.44837 50.9978 -0.755171 3.12639e-013 -17.95 0 1.49734 -8.57107 0.236038 0 4.57 -4.26326e-014 -5.53476 5.08753 -1.19024 -3.10862e-015 6.57 -3.55271e-015 0.514478 6.63758 -1.58536 1.06 4.19 1.76 -29.3778 1.28853 -4.32123 5.81 1.42109e-014 -1.42109e-014 34.6081 15.704 -48.548 1.43174e-012 -12.08 -1.53477e-012 50.1529 -14.3729 20.9126 2.73772e-011 -9.82 -4.78302e-011 -4.57766e-009 5.6624e-009 1.01518e-009 -1.06 4.19 1.76 16.2937 -0.280791 -4.15786 -6.06 7.10543e-014 2.84217e-014 -4.15213 26.6196 56.9683 1.53833e-012 -11.08 3.13705e-012 -32.0167 -14.7274 -5.04806 3.7133e-011 -9.82 6.74127e-011 -1.88015e-009 2.35359e-009 -2.76989e-009 -1.08802e-014 4.05 0 15.1238 1.23669 6.82325 -3.90799e-014 5.19 -1.42109e-014 -12.1035 -22.0814 12.0772 
3.81698 38.8384 -6.83013 -2.93905 6.06953 2.91639 3.43 -7.10543e-015 -2.13163e-014 -5.16127 -10.9353 1.98043 6.12843e-014 -18.47 7.10543e-014 0.179006 34.0797 -1.34201 1.63425e-013 -17.95 4.61853e-013 -0.750479 -9.40571 -0.26381 -3.43 -5.68434e-014 7.10543e-015 3.71935 -30.2587 12.2513 5.32907e-014 -18.47 -1.06581e-014 5.59202 49.9201 -1.55148 3.12639e-013 -17.95 0 1.5843 -8.85721 0.229562 0 4.57 -4.26326e-014 -4.93751 6.89145 -2.01738 -3.10862e-015 6.57 -3.55271e-015 0.687076 5.11231 -2.42892 1.06 4.19 1.76 -29.332 1.29468 -4.35162 5.81 1.42109e-014 -1.42109e-014 37.2113 11.1202 -50.754 1.43174e-012 -12.08 -1.53477e-012 50.3314 -14.3877 21.001 2.73772e-011 -9.82 -4.78302e-011 -4.57766e-009 5.6624e-009 1.01518e-009 -1.06 4.19 1.76 16.4488 -0.316312 -4.38856 -6.06 7.10543e-014 2.84217e-014 -3.06751 27.0301 54.0452 1.53833e-012 -11.08 3.13705e-012 -30.6517 -14.1961 -4.67757 3.7133e-011 -9.82 6.74127e-011 -1.88015e-009 2.35359e-009 -2.76989e-009 -1.08802e-014 4.05 0 10.7477 1.63758 3.8892 -3.90799e-014 5.19 -1.42109e-014 -8.08887 -24.9305 7.40456 
4.80516 38.0343 -5.43509 -3.79221 7.56408 10.8103 3.43 -7.10543e-015 -2.13163e-014 -6.32208 -12.802 1.57725 6.12843e-014 -18.47 7.10543e-014 -2.61245 38.8766 -0.759198 1.63425e-013 -17.95 4.61853e-013 -0.669639 -9.30385 -0.260342 -3.43 -5.68434e-014 7.10543e-015 3.94784 -36.8052 12.399 5.32907e-014 -18.47 -1.06581e-014 8.15357 50.3266 -2.55753 3.12639e-013 -17.95 0 1.69602 -8.81057 0.223981 0 4.57 -4.26326e-014 -5.11983 8.97467 -2.45951 -3.10862e-015 6.57 -3.55271e-015 2.1758 3.5465 -3.20949 1.06 4.19 1.76 -30.818 1.37857 -4.41638 5.81 1.42109e-014 -1.42109e-014 40.4014 4.60305 -53.7878 1.43174e-012 -12.08 -1.53477e-012 51.1414 -14.446 21.403 2.73772e-011 -9.82 -4.78302e-011 -4.57766e-009 5.6624e-009 1.01518e-009 -1.06 4.19 1.76 16.5748 -0.348963 -4.60011 -6.06 7.10543e-014 2.84217e-014 -1.82128 27.6352 49.7788 1.53833e-012 -11.08 3.13705e-012 -30.1119 -13.9823 -4.53212 3.7133e-011 -9.82 6.74127e-011 -1.88015e-009 2.35359e-009 -2.76989e-009 -1.08802e-014 4.05 0 5.6561 1.79668 1.01036 -3.90799e-014 5.19 -1.42109e-014 -4.12401 -27.6616 2.65461 
5.65103 36.8718 -3.92105 -4.49021 8.06806 18.0775 3.43 -7.10543e-015 -2.13163e-014 -6.65542 -14.1292 1.28031 6.12843e-014 -18.47 7.10543e-014 -4.44876 45.7898 -0.393843 1.63425e-013 -17.95 4.61853e-013 -0.561306 -9.51274 -0.259813 -3.43 -5.68434e-014 7.10543e-015 3.72252 -43.3165 12.5377 5.32907e-014 -18.47 -1.06581e-014 10.8171 51.2787 -3.62875 3.12639e-013 -17.95 0 1.79123 -8.60106 0.218989 0 4.57 -4.26326e-014 -5.74473 11.2612 -2.54991 -3.10862e-015 6.57 -3.55271e-015 3.40003 3.14474 -3.56943 1.06 4.19 1.76 -31.4368 1.48006 -4.67189 5.81 1.42109e-014 -1.42109e-014 43.5651 -3.12809 -57.8887 1.43174e-012 -12.08 -1.53477e-012 53.2486 -14.5749 22.4534 2.73772e-011 -9.82 -4.78302e-011 -4.57766e-009 5.6624e-009 1.01518e-009 -1.06 4.19 1.76 16.94 -0.3051 -4.21122 -6.06 7.10543e-014 2.84217e-014 -1.06019 27.0838 46.039 1.53833e-012 -11.08 3.13705e-012 -27.4276 -12.8961 -3.84613 3.7133e-011 -9.82 6.74127e-011 -1.88015e-009 2.35359e-009 -2.76989e-009 -1.08802e-014 4.05 0 3.15094 0.85986 -2.20622 -3.90799e-014 5.19 -1.42109e-014 -1.80825 -29.5895 -1.5224 
